<?xml version="1.0" standalone="no"?>
<!DOCTYPE svg PUBLIC "-//W3C//DTD SVG 20010904//EN"
 "http://www.w3.org/TR/2001/REC-SVG-20010904/DTD/svg10.dtd">
<svg version="1.0" xmlns="http://www.w3.org/2000/svg"
 width="200.000000pt" height="84.000000pt" viewBox="0 0 200.000000 84.000000"
 preserveAspectRatio="xMidYMid meet">

<g transform="translate(0.000000,84.000000) scale(0.100000,-0.100000)"
fill="#000000" stroke="none">
<path d="M358 741 c-20 -16 -21 -22 -10 -45 21 -47 88 -27 80 25 -4 32 -42 42
-70 20z"/>
<path d="M1893 749 c-25 -9 -31 -47 -11 -67 19 -19 56 -14 68 9 21 38 -15 74
-57 58z"/>
<path d="M205 559 c-43 -12 -112 -73 -138 -123 -19 -36 -22 -59 -25 -198 l-4
-158 36 0 36 0 0 143 c0 117 4 149 19 183 23 50 61 82 118 97 38 10 43 15 43
39 0 24 -4 28 -27 27 -16 0 -42 -5 -58 -10z"/>
<path d="M352 328 l3 -243 33 -3 32 -3 0 245 0 246 -35 0 -35 0 2 -242z"/>
<path d="M625 551 c-51 -23 -91 -70 -105 -121 -6 -22 -9 -107 -8 -192 l3 -153
33 -3 32 -3 0 153 c0 84 5 170 10 190 25 89 153 114 221 42 23 -24 24 -33 29
-202 l5 -177 33 -3 32 -3 0 169 c0 159 1 171 23 203 15 22 38 39 65 49 37 13
47 13 84 0 27 -10 50 -27 65 -49 22 -32 23 -44 23 -202 l0 -169 35 0 35 0 0
163 c0 185 -7 221 -52 264 -81 79 -212 85 -286 13 l-23 -22 -22 20 c-55 52
-159 67 -232 33z"/>
<path d="M1476 563 c-29 -8 -87 -47 -113 -74 -57 -62 -73 -177 -36 -259 40
-89 123 -142 223 -142 138 0 244 105 243 242 0 92 -37 156 -118 208 -31 20
-55 26 -110 28 -38 2 -79 0 -89 -3z m152 -74 c131 -64 132 -253 1 -319 -78
-40 -176 -14 -226 61 -59 89 -27 210 69 258 54 27 100 27 156 0z"/>
<path d="M1880 324 l0 -245 33 3 32 3 3 243 2 242 -35 0 -35 0 0 -246z"/>
</g>
</svg>
